<?xml version="1.0" encoding="UTF-8" standalone="no"?>
<!DOCTYPE svg PUBLIC "-//W3C//DTD SVG 1.1//EN"
 "http://www.w3.org/Graphics/SVG/1.1/DTD/svg11.dtd">
<!-- Generated by graphviz version 2.43.0 (0)
 -->
<!-- Title: G Pages: 1 -->
<svg width="1473pt" height="237pt"
 viewBox="0.00 0.00 1473.00 236.71" xmlns="http://www.w3.org/2000/svg" xmlns:xlink="http://www.w3.org/1999/xlink">
<g id="graph0" class="graph" transform="scale(1 1) rotate(0) translate(4 232.71)">
<title>G</title>
<polygon fill="white" stroke="transparent" points="-4,4 -4,-232.71 1469,-232.71 1469,4 -4,4"/>
<!-- azurerm_container_registry.acr -->
<g id="node1" class="node">
<title>azurerm_container_registry.acr</title>
<polygon fill="none" stroke="black" points="476.5,-228.71 246.5,-228.71 246.5,-192.71 476.5,-192.71 476.5,-228.71"/>
<text text-anchor="middle" x="361.5" y="-207.01" font-family="sans-serif" font-size="14.00">azurerm_container_registry.acr</text>
</g>
<!-- azurerm_resource_group.rg -->
<g id="node8" class="node">
<title>azurerm_resource_group.rg</title>
<polygon fill="none" stroke="black" points="206,-128.71 0,-128.71 0,-92.71 206,-92.71 206,-128.71"/>
<text text-anchor="middle" x="103" y="-107.01" font-family="sans-serif" font-size="14.00">azurerm_resource_group.rg</text>
</g>
<!-- azurerm_container_registry.acr&#45;&gt;azurerm_resource_group.rg -->
<g id="edge1" class="edge">
<title>azurerm_container_registry.acr&#45;&gt;azurerm_resource_group.rg</title>
<path fill="none" stroke="black" d="M269.84,-192.65C260.34,-189.99 250.9,-187.01 242,-183.71 206.5,-170.54 168.65,-150 141.58,-134.06"/>
<polygon fill="black" stroke="black" points="143.22,-130.96 132.84,-128.85 139.63,-136.98 143.22,-130.96"/>
</g>
<!-- azurerm_kubernetes_cluster.aks -->
<g id="node2" class="node">
<title>azurerm_kubernetes_cluster.aks</title>
<polygon fill="none" stroke="black" points="481,-174.71 242,-174.71 242,-138.71 481,-138.71 481,-174.71"/>
<text text-anchor="middle" x="361.5" y="-153.01" font-family="sans-serif" font-size="14.00">azurerm_kubernetes_cluster.aks</text>
</g>
<!-- azurerm_kubernetes_cluster.aks&#45;&gt;azurerm_resource_group.rg -->
<g id="edge2" class="edge">
<title>azurerm_kubernetes_cluster.aks&#45;&gt;azurerm_resource_group.rg</title>
<path fill="none" stroke="black" d="M259.86,-138.66C245.15,-136.02 229.93,-133.29 215.03,-130.62"/>
<polygon fill="black" stroke="black" points="215.23,-127.1 204.77,-128.78 214,-133.99 215.23,-127.1"/>
</g>
<!-- azurerm_linux_virtual_machine.vm -->
<g id="node3" class="node">
<title>azurerm_linux_virtual_machine.vm</title>
<polygon fill="none" stroke="black" points="1379.5,-90.71 1122.5,-90.71 1122.5,-54.71 1379.5,-54.71 1379.5,-90.71"/>
<text text-anchor="middle" x="1251" y="-69.01" font-family="sans-serif" font-size="14.00">azurerm_linux_virtual_machine.vm</text>
</g>
<!-- azurerm_network_interface.nic -->
<g id="node4" class="node">
<title>azurerm_network_interface.nic</title>
<polygon fill="none" stroke="black" points="982.5,-90.71 752.5,-90.71 752.5,-54.71 982.5,-54.71 982.5,-90.71"/>
<text text-anchor="middle" x="867.5" y="-69.01" font-family="sans-serif" font-size="14.00">azurerm_network_interface.nic</text>
</g>
<!-- azurerm_linux_virtual_machine.vm&#45;&gt;azurerm_network_interface.nic -->
<g id="edge3" class="edge">
<title>azurerm_linux_virtual_machine.vm&#45;&gt;azurerm_network_interface.nic</title>
<path fill="none" stroke="black" d="M1122.44,-72.71C1080.71,-72.71 1034.44,-72.71 992.95,-72.71"/>
<polygon fill="black" stroke="black" points="992.79,-69.21 982.79,-72.71 992.79,-76.21 992.79,-69.21"/>
</g>
<!-- azurerm_public_ip.ip -->
<g id="node7" class="node">
<title>azurerm_public_ip.ip</title>
<polygon fill="none" stroke="black" points="687,-136.71 528,-136.71 528,-100.71 687,-100.71 687,-136.71"/>
<text text-anchor="middle" x="607.5" y="-115.01" font-family="sans-serif" font-size="14.00">azurerm_public_ip.ip</text>
</g>
<!-- azurerm_network_interface.nic&#45;&gt;azurerm_public_ip.ip -->
<g id="edge4" class="edge">
<title>azurerm_network_interface.nic&#45;&gt;azurerm_public_ip.ip</title>
<path fill="none" stroke="black" d="M765.27,-90.76C742.75,-94.78 719.03,-99 697.06,-102.92"/>
<polygon fill="black" stroke="black" points="696.33,-99.5 687.1,-104.7 697.56,-106.39 696.33,-99.5"/>
</g>
<!-- azurerm_subnet.subnet -->
<g id="node9" class="node">
<title>azurerm_subnet.subnet</title>
<polygon fill="none" stroke="black" points="698,-82.71 517,-82.71 517,-46.71 698,-46.71 698,-82.71"/>
<text text-anchor="middle" x="607.5" y="-61.01" font-family="sans-serif" font-size="14.00">azurerm_subnet.subnet</text>
</g>
<!-- azurerm_network_interface.nic&#45;&gt;azurerm_subnet.subnet -->
<g id="edge5" class="edge">
<title>azurerm_network_interface.nic&#45;&gt;azurerm_subnet.subnet</title>
<path fill="none" stroke="black" d="M752.21,-69.17C737.68,-68.72 722.89,-68.26 708.6,-67.81"/>
<polygon fill="black" stroke="black" points="708.4,-64.31 698.3,-67.5 708.19,-71.3 708.4,-64.31"/>
</g>
<!-- azurerm_network_interface_security_group_association.sga -->
<g id="node5" class="node">
<title>azurerm_network_interface_security_group_association.sga</title>
<polygon fill="none" stroke="black" points="1465,-36.71 1037,-36.71 1037,-0.71 1465,-0.71 1465,-36.71"/>
<text text-anchor="middle" x="1251" y="-15.01" font-family="sans-serif" font-size="14.00">azurerm_network_interface_security_group_association.sga</text>
</g>
<!-- azurerm_network_interface_security_group_association.sga&#45;&gt;azurerm_network_interface.nic -->
<g id="edge6" class="edge">
<title>azurerm_network_interface_security_group_association.sga&#45;&gt;azurerm_network_interface.nic</title>
<path fill="none" stroke="black" d="M1102.68,-36.75C1080.65,-39.63 1058.22,-42.67 1037,-45.71 1021.09,-47.99 1004.36,-50.52 987.87,-53.09"/>
<polygon fill="black" stroke="black" points="986.98,-49.68 977.64,-54.69 988.06,-56.6 986.98,-49.68"/>
</g>
<!-- azurerm_network_security_group.sg -->
<g id="node6" class="node">
<title>azurerm_network_security_group.sg</title>
<polygon fill="none" stroke="black" points="1001,-36.71 734,-36.71 734,-0.71 1001,-0.71 1001,-36.71"/>
<text text-anchor="middle" x="867.5" y="-15.01" font-family="sans-serif" font-size="14.00">azurerm_network_security_group.sg</text>
</g>
<!-- azurerm_network_interface_security_group_association.sga&#45;&gt;azurerm_network_security_group.sg -->
<g id="edge7" class="edge">
<title>azurerm_network_interface_security_group_association.sga&#45;&gt;azurerm_network_security_group.sg</title>
<path fill="none" stroke="black" d="M1036.94,-18.71C1028.33,-18.71 1019.77,-18.71 1011.35,-18.71"/>
<polygon fill="black" stroke="black" points="1011.15,-15.21 1001.15,-18.71 1011.15,-22.21 1011.15,-15.21"/>
</g>
<!-- azurerm_network_security_group.sg&#45;&gt;azurerm_resource_group.rg -->
<g id="edge8" class="edge">
<title>azurerm_network_security_group.sg&#45;&gt;azurerm_resource_group.rg</title>
<path fill="none" stroke="black" d="M733.94,-5.61C605.8,3.08 407.3,5.99 242,-37.71 204.1,-47.73 164.97,-69.74 138.1,-86.98"/>
<polygon fill="black" stroke="black" points="135.93,-84.22 129.48,-92.62 139.76,-90.07 135.93,-84.22"/>
</g>
<!-- azurerm_public_ip.ip&#45;&gt;azurerm_resource_group.rg -->
<g id="edge9" class="edge">
<title>azurerm_public_ip.ip&#45;&gt;azurerm_resource_group.rg</title>
<path fill="none" stroke="black" d="M527.98,-117.46C444.36,-116.13 311.25,-114.01 216.49,-112.5"/>
<polygon fill="black" stroke="black" points="216.35,-109 206.29,-112.34 216.24,-116 216.35,-109"/>
</g>
<!-- azurerm_virtual_network.vnet -->
<g id="node10" class="node">
<title>azurerm_virtual_network.vnet</title>
<polygon fill="none" stroke="black" points="473,-82.71 250,-82.71 250,-46.71 473,-46.71 473,-82.71"/>
<text text-anchor="middle" x="361.5" y="-61.01" font-family="sans-serif" font-size="14.00">azurerm_virtual_network.vnet</text>
</g>
<!-- azurerm_subnet.subnet&#45;&gt;azurerm_virtual_network.vnet -->
<g id="edge10" class="edge">
<title>azurerm_subnet.subnet&#45;&gt;azurerm_virtual_network.vnet</title>
<path fill="none" stroke="black" d="M516.68,-64.71C505.86,-64.71 494.68,-64.71 483.51,-64.71"/>
<polygon fill="black" stroke="black" points="483.26,-61.21 473.26,-64.71 483.26,-68.21 483.26,-61.21"/>
</g>
<!-- azurerm_virtual_network.vnet&#45;&gt;azurerm_resource_group.rg -->
<g id="edge11" class="edge">
<title>azurerm_virtual_network.vnet&#45;&gt;azurerm_resource_group.rg</title>
<path fill="none" stroke="black" d="M259.86,-82.76C245.15,-85.4 229.93,-88.13 215.03,-90.8"/>
<polygon fill="black" stroke="black" points="214,-87.43 204.77,-92.64 215.23,-94.32 214,-87.43"/>
</g>
</g>
</svg>
