<?xml version="1.0" encoding="UTF-8" standalone="no"?>
<!DOCTYPE svg PUBLIC "-//W3C//DTD SVG 1.1//EN"
 "http://www.w3.org/Graphics/SVG/1.1/DTD/svg11.dtd">
<!-- Generated by graphviz version 2.43.0 (0)
 -->
<!-- Title: G Pages: 1 -->
<svg width="1669pt" height="239pt"
 viewBox="0.00 0.00 1669.00 239.16" xmlns="http://www.w3.org/2000/svg" xmlns:xlink="http://www.w3.org/1999/xlink">
<g id="graph0" class="graph" transform="scale(1 1) rotate(0) translate(4 235.16)">
<title>G</title>
<polygon fill="white" stroke="transparent" points="-4,4 -4,-235.16 1665,-235.16 1665,4 -4,4"/>
<!-- azurerm_container_registry.acr -->
<g id="node1" class="node">
<title>azurerm_container_registry.acr</title>
<polygon fill="none" stroke="black" points="476.5,-231.16 246.5,-231.16 246.5,-195.16 476.5,-195.16 476.5,-231.16"/>
<text text-anchor="middle" x="361.5" y="-209.46" font-family="sans-serif" font-size="14.00">azurerm_container_registry.acr</text>
</g>
<!-- azurerm_resource_group.rg -->
<g id="node8" class="node">
<title>azurerm_resource_group.rg</title>
<polygon fill="none" stroke="black" points="206,-131.16 0,-131.16 0,-95.16 206,-95.16 206,-131.16"/>
<text text-anchor="middle" x="103" y="-109.46" font-family="sans-serif" font-size="14.00">azurerm_resource_group.rg</text>
</g>
<!-- azurerm_container_registry.acr&#45;&gt;azurerm_resource_group.rg -->
<g id="edge1" class="edge">
<title>azurerm_container_registry.acr&#45;&gt;azurerm_resource_group.rg</title>
<path fill="none" stroke="black" d="M269.84,-195.1C260.34,-192.44 250.9,-189.46 242,-186.16 206.5,-172.99 168.65,-152.45 141.58,-136.51"/>
<polygon fill="black" stroke="black" points="143.22,-133.41 132.84,-131.3 139.63,-139.43 143.22,-133.41"/>
</g>
<!-- azurerm_kubernetes_cluster.aks -->
<g id="node2" class="node">
<title>azurerm_kubernetes_cluster.aks</title>
<polygon fill="none" stroke="black" points="481,-177.16 242,-177.16 242,-141.16 481,-141.16 481,-177.16"/>
<text text-anchor="middle" x="361.5" y="-155.46" font-family="sans-serif" font-size="14.00">azurerm_kubernetes_cluster.aks</text>
</g>
<!-- azurerm_kubernetes_cluster.aks&#45;&gt;azurerm_resource_group.rg -->
<g id="edge2" class="edge">
<title>azurerm_kubernetes_cluster.aks&#45;&gt;azurerm_resource_group.rg</title>
<path fill="none" stroke="black" d="M259.86,-141.11C245.15,-138.47 229.93,-135.75 215.03,-133.07"/>
<polygon fill="black" stroke="black" points="215.23,-129.55 204.77,-131.23 214,-136.44 215.23,-129.55"/>
</g>
<!-- azurerm_linux_virtual_machine.vm -->
<g id="node3" class="node">
<title>azurerm_linux_virtual_machine.vm</title>
<polygon fill="none" stroke="black" points="1516,-93.16 1259,-93.16 1259,-57.16 1516,-57.16 1516,-93.16"/>
<text text-anchor="middle" x="1387.5" y="-71.46" font-family="sans-serif" font-size="14.00">azurerm_linux_virtual_machine.vm</text>
</g>
<!-- azurerm_network_interface.nic -->
<g id="node4" class="node">
<title>azurerm_network_interface.nic</title>
<polygon fill="none" stroke="black" points="1035,-93.16 805,-93.16 805,-57.16 1035,-57.16 1035,-93.16"/>
<text text-anchor="middle" x="920" y="-71.46" font-family="sans-serif" font-size="14.00">azurerm_network_interface.nic</text>
</g>
<!-- azurerm_linux_virtual_machine.vm&#45;&gt;azurerm_network_interface.nic -->
<g id="edge3" class="edge">
<title>azurerm_linux_virtual_machine.vm&#45;&gt;azurerm_network_interface.nic</title>
<path fill="none" stroke="black" d="M1258.99,-75.16C1192.42,-75.16 1111.31,-75.16 1045.23,-75.16"/>
<polygon fill="black" stroke="black" points="1045.17,-71.66 1035.17,-75.16 1045.17,-78.66 1045.17,-71.66"/>
</g>
<!-- azurerm_public_ip.ipPublica -->
<g id="node7" class="node">
<title>azurerm_public_ip.ipPublica</title>
<polygon fill="none" stroke="black" points="726,-139.16 517,-139.16 517,-103.16 726,-103.16 726,-139.16"/>
<text text-anchor="middle" x="621.5" y="-117.46" font-family="sans-serif" font-size="14.00">azurerm_public_ip.ipPublica</text>
</g>
<!-- azurerm_network_interface.nic&#45;&gt;azurerm_public_ip.ipPublica -->
<g id="edge4" class="edge">
<title>azurerm_network_interface.nic&#45;&gt;azurerm_public_ip.ipPublica</title>
<path fill="none" stroke="black" d="M804.79,-92.88C782.34,-96.36 758.78,-100.02 736.34,-103.5"/>
<polygon fill="black" stroke="black" points="735.81,-100.04 726.46,-105.03 736.88,-106.96 735.81,-100.04"/>
</g>
<!-- azurerm_subnet.subnet -->
<g id="node9" class="node">
<title>azurerm_subnet.subnet</title>
<polygon fill="none" stroke="black" points="712,-85.16 531,-85.16 531,-49.16 712,-49.16 712,-85.16"/>
<text text-anchor="middle" x="621.5" y="-63.46" font-family="sans-serif" font-size="14.00">azurerm_subnet.subnet</text>
</g>
<!-- azurerm_network_interface.nic&#45;&gt;azurerm_subnet.subnet -->
<g id="edge5" class="edge">
<title>azurerm_network_interface.nic&#45;&gt;azurerm_subnet.subnet</title>
<path fill="none" stroke="black" d="M804.79,-72.08C777.59,-71.35 748.78,-70.57 722.29,-69.85"/>
<polygon fill="black" stroke="black" points="722.35,-66.35 712.26,-69.58 722.16,-73.35 722.35,-66.35"/>
</g>
<!-- azurerm_network_interface_security_group_association.secGroupAssociation -->
<g id="node5" class="node">
<title>azurerm_network_interface_security_group_association.secGroupAssociation</title>
<polygon fill="none" stroke="black" points="1661,-39.16 1114,-39.16 1114,-3.16 1661,-3.16 1661,-39.16"/>
<text text-anchor="middle" x="1387.5" y="-17.46" font-family="sans-serif" font-size="14.00">azurerm_network_interface_security_group_association.secGroupAssociation</text>
</g>
<!-- azurerm_network_interface_security_group_association.secGroupAssociation&#45;&gt;azurerm_network_interface.nic -->
<g id="edge6" class="edge">
<title>azurerm_network_interface_security_group_association.secGroupAssociation&#45;&gt;azurerm_network_interface.nic</title>
<path fill="none" stroke="black" d="M1194.71,-39.18C1167.6,-42.02 1140.08,-45.05 1114,-48.16 1091.76,-50.82 1068.11,-53.91 1045.28,-57.02"/>
<polygon fill="black" stroke="black" points="1044.63,-53.58 1035.2,-58.41 1045.59,-60.52 1044.63,-53.58"/>
</g>
<!-- azurerm_network_security_group.secGroup -->
<g id="node6" class="node">
<title>azurerm_network_security_group.secGroup</title>
<polygon fill="none" stroke="black" points="1078,-39.16 762,-39.16 762,-3.16 1078,-3.16 1078,-39.16"/>
<text text-anchor="middle" x="920" y="-17.46" font-family="sans-serif" font-size="14.00">azurerm_network_security_group.secGroup</text>
</g>
<!-- azurerm_network_interface_security_group_association.secGroupAssociation&#45;&gt;azurerm_network_security_group.secGroup -->
<g id="edge7" class="edge">
<title>azurerm_network_interface_security_group_association.secGroupAssociation&#45;&gt;azurerm_network_security_group.secGroup</title>
<path fill="none" stroke="black" d="M1113.7,-21.16C1105.16,-21.16 1096.7,-21.16 1088.36,-21.16"/>
<polygon fill="black" stroke="black" points="1088.25,-17.66 1078.25,-21.16 1088.25,-24.66 1088.25,-17.66"/>
</g>
<!-- azurerm_network_security_group.secGroup&#45;&gt;azurerm_resource_group.rg -->
<g id="edge8" class="edge">
<title>azurerm_network_security_group.secGroup&#45;&gt;azurerm_resource_group.rg</title>
<path fill="none" stroke="black" d="M761.88,-5.61C622.8,3.48 415.55,5.51 242,-40.16 204.09,-50.14 164.96,-72.15 138.09,-89.41"/>
<polygon fill="black" stroke="black" points="135.92,-86.64 129.47,-95.05 139.76,-92.5 135.92,-86.64"/>
</g>
<!-- azurerm_public_ip.ipPublica&#45;&gt;azurerm_resource_group.rg -->
<g id="edge9" class="edge">
<title>azurerm_public_ip.ipPublica&#45;&gt;azurerm_resource_group.rg</title>
<path fill="none" stroke="black" d="M516.91,-119.56C429.86,-118.21 305.69,-116.29 216.27,-114.9"/>
<polygon fill="black" stroke="black" points="216.15,-111.4 206.1,-114.74 216.04,-118.4 216.15,-111.4"/>
</g>
<!-- azurerm_virtual_network.vnet -->
<g id="node10" class="node">
<title>azurerm_virtual_network.vnet</title>
<polygon fill="none" stroke="black" points="473,-85.16 250,-85.16 250,-49.16 473,-49.16 473,-85.16"/>
<text text-anchor="middle" x="361.5" y="-63.46" font-family="sans-serif" font-size="14.00">azurerm_virtual_network.vnet</text>
</g>
<!-- azurerm_subnet.subnet&#45;&gt;azurerm_virtual_network.vnet -->
<g id="edge10" class="edge">
<title>azurerm_subnet.subnet&#45;&gt;azurerm_virtual_network.vnet</title>
<path fill="none" stroke="black" d="M530.99,-67.16C515.71,-67.16 499.61,-67.16 483.67,-67.16"/>
<polygon fill="black" stroke="black" points="483.23,-63.66 473.23,-67.16 483.23,-70.66 483.23,-63.66"/>
</g>
<!-- azurerm_virtual_network.vnet&#45;&gt;azurerm_resource_group.rg -->
<g id="edge11" class="edge">
<title>azurerm_virtual_network.vnet&#45;&gt;azurerm_resource_group.rg</title>
<path fill="none" stroke="black" d="M259.86,-85.21C245.15,-87.85 229.93,-90.58 215.03,-93.25"/>
<polygon fill="black" stroke="black" points="214,-89.88 204.77,-95.09 215.23,-96.77 214,-89.88"/>
</g>
<!-- tls_private_key.ssh_key -->
<g id="node11" class="node">
<title>tls_private_key.ssh_key</title>
<polygon fill="none" stroke="black" points="1475.5,-147.16 1299.5,-147.16 1299.5,-111.16 1475.5,-111.16 1475.5,-147.16"/>
<text text-anchor="middle" x="1387.5" y="-125.46" font-family="sans-serif" font-size="14.00">tls_private_key.ssh_key</text>
</g>
</g>
</svg>
